<svg xmlns="http://www.w3.org/2000/svg"  viewBox="0 0 50 50" width="50px" height="50px"><path d="M 14 3.9902344 C 8.4886661 3.9902344 4 8.4789008 4 13.990234 L 4 35.990234 C 4 41.501568 8.4886661 45.990234 14 45.990234 L 36 45.990234 C 41.511334 45.990234 46 41.501568 46 35.990234 L 46 13.990234 C 46 8.4789008 41.511334 3.9902344 36 3.9902344 L 14 3.9902344 z M 14 5.9902344 L 36 5.9902344 C 40.430666 5.9902344 44 9.5595687 44 13.990234 L 44 35.990234 C 44 40.4209 40.430666 43.990234 36 43.990234 L 14 43.990234 C 9.5693339 43.990234 6 40.4209 6 35.990234 L 6 13.990234 C 6 9.5595687 9.5693339 5.9902344 14 5.9902344 z M 25.025391 7.9902344 A 1.0001 1.0001 0 0 0 24.082031 8.5683594 L 11.199219 36.324219 A 1.0001 1.0001 0 0 0 12.365234 37.710938 L 20.976562 35.412109 L 24.123047 41.40625 A 1.0001 1.0001 0 0 0 25.894531 41.402344 L 28.972656 35.484375 L 37.628906 37.673828 A 1.0001 1.0001 0 0 0 38.78125 36.283203 L 25.896484 8.5683594 A 1.0001 1.0001 0 0 0 25.025391 7.9902344 z M 24.990234 11.361328 L 36.080078 35.220703 L 28.816406 33.380859 L 24.976562 16 L 24.976562 38.730469 L 22.376953 33.775391 A 1.0001 1.0001 0 0 0 21.232422 33.273438 L 13.914062 35.228516 L 24.990234 11.361328 z"/></svg>